<svg xmlns="http://www.w3.org/2000/svg" version="1.1" xmlns:xlink="http://www.w3.org/1999/xlink" xmlns:svgjs="http://svgjs.com/svgjs" width="1920" height="1080" preserveAspectRatio="none" viewBox="0 0 1920 1080"><g mask="url(&quot;#SvgjsMask1260&quot;)" fill="none"><g mask="url(&quot;#SvgjsMask1261&quot;)"><path d="M75 475L125 525L175 525L225 525L275 525M-25 525L25 475L75 475L125 475" stroke="rgba(225, 225, 225, 1)" stroke-width="8.33"></path><path d="M112.5 475 a12.5 12.5 0 1 0 25 0 a12.5 12.5 0 1 0 -25 0zM262.5 525 a12.5 12.5 0 1 0 25 0 a12.5 12.5 0 1 0 -25 0z" fill="rgba(225, 225, 225, 1)"></path><path d="M-25 575L25 575" stroke="rgba(224, 36, 45, 1)" stroke-width="8.33"></path><path d="M12.5 575 a12.5 12.5 0 1 0 25 0 a12.5 12.5 0 1 0 -25 0z" fill="rgba(224, 36, 45, 1)"></path><path d="M175 375L225 375L275 375L325 425L375 425M125 375L175 425L225 475L275 475M-25 475L25 425L75 425L125 375L175 375L225 425" stroke="rgba(225, 225, 225, 1)" stroke-width="8.33"></path><path d="M212.5 425 a12.5 12.5 0 1 0 25 0 a12.5 12.5 0 1 0 -25 0zM362.5 425 a12.5 12.5 0 1 0 25 0 a12.5 12.5 0 1 0 -25 0zM262.5 475 a12.5 12.5 0 1 0 25 0 a12.5 12.5 0 1 0 -25 0z" fill="rgba(225, 225, 225, 1)"></path><path d="M75 625L125 575M225 625L275 675L325 675M175 625L225 675M-25 625L25 625L75 625L125 625L175 625L225 625L275 625" stroke="rgba(225, 225, 225, 1)" stroke-width="8.33"></path><path d="M262.5 625 a12.5 12.5 0 1 0 25 0 a12.5 12.5 0 1 0 -25 0zM112.5 575 a12.5 12.5 0 1 0 25 0 a12.5 12.5 0 1 0 -25 0zM312.5 675 a12.5 12.5 0 1 0 25 0 a12.5 12.5 0 1 0 -25 0zM212.5 675 a12.5 12.5 0 1 0 25 0 a12.5 12.5 0 1 0 -25 0z" fill="rgba(225, 225, 225, 1)"></path><path d="M375 325L425 375L475 375L525 375L575 375M325 325L375 375M-25 425L25 375L75 375L125 325L175 325L225 325L275 325L325 325L375 325L425 325" stroke="rgba(225, 225, 225, 1)" stroke-width="8.33"></path><path d="M412.5 325 a12.5 12.5 0 1 0 25 0 a12.5 12.5 0 1 0 -25 0zM562.5 375 a12.5 12.5 0 1 0 25 0 a12.5 12.5 0 1 0 -25 0zM362.5 375 a12.5 12.5 0 1 0 25 0 a12.5 12.5 0 1 0 -25 0z" fill="rgba(225, 225, 225, 1)"></path><path d="M75 725L125 675M325 725L375 725L425 725L475 725L525 725M25 675L75 675M-25 675L25 675L75 725L125 725L175 725L225 725L275 725L325 725L375 775L425 775L475 775" stroke="rgba(224, 36, 45, 1)" stroke-width="8.33"></path><path d="M462.5 775 a12.5 12.5 0 1 0 25 0 a12.5 12.5 0 1 0 -25 0zM112.5 675 a12.5 12.5 0 1 0 25 0 a12.5 12.5 0 1 0 -25 0zM512.5 725 a12.5 12.5 0 1 0 25 0 a12.5 12.5 0 1 0 -25 0zM62.5 675 a12.5 12.5 0 1 0 25 0 a12.5 12.5 0 1 0 -25 0z" fill="rgba(224, 36, 45, 1)"></path><path d="M275 275L325 225M-25 375L25 325L75 325L125 275L175 275L225 275L275 275L325 275L375 275" stroke="rgba(225, 225, 225, 1)" stroke-width="8.33"></path><path d="M362.5 275 a12.5 12.5 0 1 0 25 0 a12.5 12.5 0 1 0 -25 0zM312.5 225 a12.5 12.5 0 1 0 25 0 a12.5 12.5 0 1 0 -25 0z" fill="rgba(225, 225, 225, 1)"></path><path d="M525 825L575 775M475 825L525 875L575 875M-25 725L25 725L75 775L125 775L175 775L225 775L275 775L325 775L375 825L425 825L475 825L525 825L575 825L625 825" stroke="rgba(224, 36, 45, 1)" stroke-width="8.33"></path><path d="M612.5 825 a12.5 12.5 0 1 0 25 0 a12.5 12.5 0 1 0 -25 0zM562.5 775 a12.5 12.5 0 1 0 25 0 a12.5 12.5 0 1 0 -25 0zM562.5 875 a12.5 12.5 0 1 0 25 0 a12.5 12.5 0 1 0 -25 0z" fill="rgba(224, 36, 45, 1)"></path><path d="M-25 325L25 275L75 275L125 225L175 225L225 225" stroke="rgba(224, 36, 45, 1)" stroke-width="8.33"></path><path d="M212.5 225 a12.5 12.5 0 1 0 25 0 a12.5 12.5 0 1 0 -25 0z" fill="rgba(224, 36, 45, 1)"></path><path d="M375 875L425 925L475 975M425 875L475 875M475 925L525 925M-25 775L25 775L75 825L125 825L175 825L225 825L275 825L325 825L375 875L425 875L475 925L525 975L575 975" stroke="rgba(225, 225, 225, 1)" stroke-width="8.33"></path><path d="M562.5 975 a12.5 12.5 0 1 0 25 0 a12.5 12.5 0 1 0 -25 0zM462.5 975 a12.5 12.5 0 1 0 25 0 a12.5 12.5 0 1 0 -25 0zM462.5 875 a12.5 12.5 0 1 0 25 0 a12.5 12.5 0 1 0 -25 0zM512.5 925 a12.5 12.5 0 1 0 25 0 a12.5 12.5 0 1 0 -25 0z" fill="rgba(225, 225, 225, 1)"></path><path d="M25 225L75 225M575 175L625 125M75 175L125 125M-25 275L25 225L75 175L125 175L175 175L225 175L275 175L325 175L375 175L425 175L475 175L525 175L575 175L625 175" stroke="rgba(225, 225, 225, 1)" stroke-width="8.33"></path><path d="M612.5 175 a12.5 12.5 0 1 0 25 0 a12.5 12.5 0 1 0 -25 0zM62.5 225 a12.5 12.5 0 1 0 25 0 a12.5 12.5 0 1 0 -25 0zM612.5 125 a12.5 12.5 0 1 0 25 0 a12.5 12.5 0 1 0 -25 0zM112.5 125 a12.5 12.5 0 1 0 25 0 a12.5 12.5 0 1 0 -25 0z" fill="rgba(225, 225, 225, 1)"></path></g></g><defs><mask id="SvgjsMask1260"><rect width="1920" height="1080" fill="#ffffff"></rect></mask><mask id="SvgjsMask1261"><rect width="1920" height="1080" fill="white"></rect><path d="M118.75 475 a6.25 6.25 0 1 0 12.5 0 a6.25 6.25 0 1 0 -12.5 0zM268.75 525 a6.25 6.25 0 1 0 12.5 0 a6.25 6.25 0 1 0 -12.5 0z" fill="black"></path><path d="M18.75 575 a6.25 6.25 0 1 0 12.5 0 a6.25 6.25 0 1 0 -12.5 0z" fill="black"></path><path d="M218.75 425 a6.25 6.25 0 1 0 12.5 0 a6.25 6.25 0 1 0 -12.5 0zM368.75 425 a6.25 6.25 0 1 0 12.5 0 a6.25 6.25 0 1 0 -12.5 0zM268.75 475 a6.25 6.25 0 1 0 12.5 0 a6.25 6.25 0 1 0 -12.5 0z" fill="black"></path><path d="M268.75 625 a6.25 6.25 0 1 0 12.5 0 a6.25 6.25 0 1 0 -12.5 0zM118.75 575 a6.25 6.25 0 1 0 12.5 0 a6.25 6.25 0 1 0 -12.5 0zM318.75 675 a6.25 6.25 0 1 0 12.5 0 a6.25 6.25 0 1 0 -12.5 0zM218.75 675 a6.25 6.25 0 1 0 12.5 0 a6.25 6.25 0 1 0 -12.5 0z" fill="black"></path><path d="M418.75 325 a6.25 6.25 0 1 0 12.5 0 a6.25 6.25 0 1 0 -12.5 0zM568.75 375 a6.25 6.25 0 1 0 12.5 0 a6.25 6.25 0 1 0 -12.5 0zM368.75 375 a6.25 6.25 0 1 0 12.5 0 a6.25 6.25 0 1 0 -12.5 0z" fill="black"></path><path d="M468.75 775 a6.25 6.25 0 1 0 12.5 0 a6.25 6.25 0 1 0 -12.5 0zM118.75 675 a6.25 6.25 0 1 0 12.5 0 a6.25 6.25 0 1 0 -12.5 0zM518.75 725 a6.25 6.25 0 1 0 12.5 0 a6.25 6.25 0 1 0 -12.5 0zM68.75 675 a6.25 6.25 0 1 0 12.5 0 a6.25 6.25 0 1 0 -12.5 0z" fill="black"></path><path d="M368.75 275 a6.25 6.25 0 1 0 12.5 0 a6.25 6.25 0 1 0 -12.5 0zM318.75 225 a6.25 6.25 0 1 0 12.5 0 a6.25 6.25 0 1 0 -12.5 0z" fill="black"></path><path d="M618.75 825 a6.25 6.25 0 1 0 12.5 0 a6.25 6.25 0 1 0 -12.5 0zM568.75 775 a6.25 6.25 0 1 0 12.5 0 a6.25 6.25 0 1 0 -12.5 0zM568.75 875 a6.25 6.25 0 1 0 12.5 0 a6.25 6.25 0 1 0 -12.5 0z" fill="black"></path><path d="M218.75 225 a6.25 6.25 0 1 0 12.5 0 a6.25 6.25 0 1 0 -12.5 0z" fill="black"></path><path d="M568.75 975 a6.25 6.25 0 1 0 12.5 0 a6.25 6.25 0 1 0 -12.5 0zM468.75 975 a6.25 6.25 0 1 0 12.5 0 a6.25 6.25 0 1 0 -12.5 0zM468.75 875 a6.25 6.25 0 1 0 12.5 0 a6.25 6.25 0 1 0 -12.5 0zM518.75 925 a6.25 6.25 0 1 0 12.5 0 a6.25 6.25 0 1 0 -12.5 0z" fill="black"></path><path d="M618.75 175 a6.25 6.25 0 1 0 12.5 0 a6.25 6.25 0 1 0 -12.5 0zM68.75 225 a6.25 6.25 0 1 0 12.5 0 a6.25 6.25 0 1 0 -12.5 0zM618.75 125 a6.25 6.25 0 1 0 12.5 0 a6.25 6.25 0 1 0 -12.5 0zM118.75 125 a6.25 6.25 0 1 0 12.5 0 a6.25 6.25 0 1 0 -12.5 0z" fill="black"></path></mask></defs></svg>